# xmcd
#
# Track frame offsets:
#	150
#	11565
#	21100
#	32803
#	43595
#	56218
#	68445
#	78995
#	88783
#	103670
#	112938
#	121145
#	131970
#	141513
#	153150
#	165090
#	175360
#	185265
#	196373
#	207853
#
# Disc length: 2962 seconds
#
# Revision: 1
# Processed by: cddbd v1.5.2PL0 Copyright (c) Steve Scherf et al.
# Submitted via: audiograbber 1.83.01
#
DISCID=090b9014
DTITLE=The Music Box - Disk 1
DYEAR=1900
DGENRE=
TTITLE0=Ray Price - Crazy Arm
TTITLE1=Elvis Presley - Heartbreak Hotel
TTITLE2=Heartachs by the number - Ray Price
TTITLE3=Hello Walls - Farron young
TTITLE4=I Fall to Pieces - Patsy Cline
TTITLE5=Crazy - Patsy Cline
TTITLE6=Act Naturally - Buck Ownes
TTITLE7=Busted - Ray Charles
TTITLE8=Night Life - Ray Price
TTITLE9=Chug A lug - Roger Miller
TTITLE10=Dang Me - Roger Miller
TTITLE11=Pretty Papter - Willie Nelson
TTITLE12=The Race Is On - George Jone
TTITLE13=Welcome to My World - Jim Reeves
TTITLE14=Funny How Time Slips Away - Willie Nelson
TTITLE15=Green Green Grass Of Home - Porter Wagoner
TTITLE16=i've Got a Tiger By The Tail - Buck Ownes
TTITLE17=King Of The Road - Roger Miller
TTITLE18=Make The World Go Away - Ray Price
TTITLE19=Don't Touch Me - Jeannie Seeley
EXTD=
EXTT0=
EXTT1=
EXTT2=
EXTT3=
EXTT4=
EXTT5=
EXTT6=
EXTT7=
EXTT8=
EXTT9=
EXTT10=
EXTT11=
EXTT12=
EXTT13=
EXTT14=
EXTT15=
EXTT16=
EXTT17=
EXTT18=
EXTT19=
PLAYORDER=
